<?xml version="1.0" encoding="iso-8859-1"?>
<!-- Generator: Adobe Illustrator 17.1.0, SVG Export Plug-In . SVG Version: 6.00 Build 0)  -->
<!DOCTYPE svg PUBLIC "-//W3C//DTD SVG 1.1//EN" "http://www.w3.org/Graphics/SVG/1.1/DTD/svg11.dtd">
<svg xmlns="http://www.w3.org/2000/svg" xmlns:xlink="http://www.w3.org/1999/xlink" version="1.1" id="Capa_1" x="0px" y="0px" viewBox="0 0 296.251 296.251" style="enable-background:new 0 0 296.251 296.251;" xml:space="preserve" width="512px" height="512px">
<g>
	<path d="M235.791,119.724V87.846l6.871,2.942c0.447,0.191,0.913,0.283,1.374,0.283c1.246,0,2.443-0.669,3.074-1.825   c0.863-1.585,0.381-3.566-1.113-4.576l-61.871-41.776c0.404-2.165,0.626-4.394,0.626-6.674c0-19.972-16.249-36.22-36.22-36.22   c-19.973,0-36.221,16.248-36.221,36.22c0,26.34,10.768,48.513,21.178,69.956c2.945,6.065,5.828,12.017,8.384,17.91   c-2.648-0.987-5.529-1.895-8.658-2.737c-12.158-3.273-26.672-6.619-42.135-6.619c-7.4,0-14.51,0.734-21.736,2.245   c-25.937,5.425-42.049,22.414-42.049,44.337c0,23.316,12.699,30.582,13.24,30.88c1.381,0.759,3.1,0.504,4.199-0.627l8.541-8.792   c4.813,4.274,15.516,12.598,35.516,17.231v12.247H67.787c-4.418,0-7.996,3.582-7.996,8v17c0,4.418,3.582,8,8,8s8-3.582,8-8v-9h13   v60c0,4.418,3.578,8,7.996,8h17c4.418,0,8-3.582,8-8s-3.582-8-8-8h-8.996v-52h39.135c3.234,0,6.148-1.946,7.389-4.932   c1.24-2.986,0.561-6.425-1.721-8.715l-13.551-13.601c7.127-2.023,13.342-5.35,18.385-9.903   c8.375-7.559,12.986-18.138,12.986-29.789c0-4.904-0.443-9.254-1.396-13.127c-2.648-17.097-10.496-33.266-18.135-48.997   c-4.662-9.599-9.396-19.357-13.043-29.442c4.227,1.731,8.848,2.694,13.691,2.694c10.113,0,19.271-4.172,25.847-10.88l45.413,19.438   v38.223c-8,11.697-33.504,51.885-33.504,70.615c0,22.792,18.542,41.334,41.333,41.334c22.793,0,41.336-18.542,41.336-41.334   C268.956,171.365,243.791,132.031,235.791,119.724z M148.531,31.882c2.396,0,4.338,1.941,4.338,4.337   c0,2.396-1.941,4.339-4.338,4.339s-4.338-1.942-4.338-4.339C144.193,33.823,146.135,31.882,148.531,31.882z M104.791,212.251   v-9.585c3,0.341,7.111,0.554,10.945,0.623l8.926,8.962H104.791z M227.619,215.169c-13.969,0-25.334-11.365-25.334-25.334   c0-9.256,13.23-33.893,25.336-53.23c12.104,19.332,25.332,43.966,25.332,53.23C252.953,203.804,241.588,215.169,227.619,215.169z" fill="#FFFFFF"/>
</g>
<g>
</g>
<g>
</g>
<g>
</g>
<g>
</g>
<g>
</g>
<g>
</g>
<g>
</g>
<g>
</g>
<g>
</g>
<g>
</g>
<g>
</g>
<g>
</g>
<g>
</g>
<g>
</g>
<g>
</g>
</svg>
