<?xml version="1.0" encoding="iso-8859-1"?>
<!-- Generator: Adobe Illustrator 16.0.0, SVG Export Plug-In . SVG Version: 6.00 Build 0)  -->
<!DOCTYPE svg PUBLIC "-//W3C//DTD SVG 1.1//EN" "http://www.w3.org/Graphics/SVG/1.1/DTD/svg11.dtd">
<svg xmlns="http://www.w3.org/2000/svg" xmlns:xlink="http://www.w3.org/1999/xlink" version="1.1" id="Capa_1" x="0px" y="0px" width="512px" height="512px" viewBox="0 0 388.46 388.46" style="enable-background:new 0 0 388.46 388.46;" xml:space="preserve">
<g>
	<g>
		<path d="M312.378,136.127c-5.621,0-11.03,0.91-16.104,2.572l-83.005-83.006c5.928-14.306,3.084-31.392-8.549-43.025l-1.111-1.114    C188.2-3.852,163.215-3.851,147.806,11.555l-15.857,15.866c-28.813-8.564-61.283-1.476-84.025,21.269l-23.694,23.7l19.099,19.099    l-3.208,3.206c-19.999,19.999-19.999,52.538,0,72.534l8.929,8.928c20.001,19.999,52.538,19.999,72.54,0.001l3.203-3.206    l19.101,19.1l23.698-23.698c21.563-21.563,29.042-51.865,22.468-79.503l75.953,75.955c-3.501,6.98-5.487,14.847-5.487,23.174    c0,11.263,3.62,21.688,9.744,30.201l-80.111,108.396h-39.701c-25.051,0-45.432,20.382-45.432,45.434    c0,9.085,7.364,16.45,16.447,16.45h172.714c9.083,0,16.446-7.365,16.446-16.45c0-25.052-20.38-45.434-45.434-45.434H239.72    l64.578-87.376c2.635,0.413,5.331,0.634,8.081,0.634c28.592,0,51.852-23.262,51.852-51.853    C364.23,159.389,340.97,136.127,312.378,136.127z M104.845,159.417c-10.77,10.769-28.29,10.77-39.06,0l-8.929-8.928    c-10.767-10.769-10.767-28.29,0.001-39.06l3.208-3.206l47.985,47.988L104.845,159.417z M289.571,187.979    c0-12.574,10.229-22.805,22.809-22.805c12.572,0,22.806,10.229,22.806,22.805c0,12.576-10.231,22.806-22.806,22.806    C299.801,210.785,289.571,200.555,289.571,187.979z" fill="#FFFFFF"/>
	</g>
</g>
<g>
</g>
<g>
</g>
<g>
</g>
<g>
</g>
<g>
</g>
<g>
</g>
<g>
</g>
<g>
</g>
<g>
</g>
<g>
</g>
<g>
</g>
<g>
</g>
<g>
</g>
<g>
</g>
<g>
</g>
</svg>
