<?xml version="1.0" encoding="iso-8859-1"?>
<!-- Generator: Adobe Illustrator 18.1.1, SVG Export Plug-In . SVG Version: 6.00 Build 0)  -->
<svg xmlns="http://www.w3.org/2000/svg" xmlns:xlink="http://www.w3.org/1999/xlink" version="1.1" id="Capa_1" x="0px" y="0px" viewBox="0 0 19.677 19.677" style="enable-background:new 0 0 19.677 19.677;" xml:space="preserve" width="512px" height="512px">
<g>
	<path d="M19.469,13.651l-0.466-0.443l-0.478-0.041V8.684l0.201-0.076V7.831l0.209-0.021V7.391c0,0-0.72-0.348-0.856-0.232   L17.15,6.674L16.711,6.44l-1.137-0.578l-0.229-0.025l-0.373,0.047l-0.255-0.326l-0.579-0.021L14.09,4.912l-3.337,0.186   l-0.602,0.025c0,0-0.188-0.051-0.374,0.043C9.597,5.258,9.271,4.96,9.271,4.96L8.437,4.774L6.915,5.616v0.371L6.792,6.051   l-5.295,3.33L1.353,9.338L0.45,9.895v0.701l0.105,0.062v3.318l-0.339,0.068c0,0-0.115,0.256-0.185,0.35   c-0.069,0.09,0,0.508,0,0.508h19.646v-1.004C19.594,13.774,19.469,13.651,19.469,13.651z M5.872,13.034l-0.879,0.225V8.323   l0.879-0.514V13.034z M8.082,12.461l-0.999,0.26V7.104l0.915-0.533c0.025-0.01,0.061-0.025,0.084-0.035V12.461z M10.596,12.461   l-1.089-0.097V6.639c0.311,0.07,0.68,0.154,1.089,0.246V12.461z M12.955,12.67l-1.089-0.097V7.178   c0.354,0.078,0.718,0.162,1.089,0.246V12.67z M15.165,12.866l-0.997-0.086V7.698c0.338,0.076,0.67,0.152,0.997,0.226V12.866z    M17.348,13.061l-0.97-0.086V8.2c0.353,0.08,0.677,0.152,0.97,0.219V13.061z" fill="#FFFFFF"/>
</g>
<g>
</g>
<g>
</g>
<g>
</g>
<g>
</g>
<g>
</g>
<g>
</g>
<g>
</g>
<g>
</g>
<g>
</g>
<g>
</g>
<g>
</g>
<g>
</g>
<g>
</g>
<g>
</g>
<g>
</g>
</svg>
