<?xml version="1.0" encoding="iso-8859-1"?>
<!-- Generator: Adobe Illustrator 19.0.0, SVG Export Plug-In . SVG Version: 6.00 Build 0)  -->
<svg xmlns="http://www.w3.org/2000/svg" xmlns:xlink="http://www.w3.org/1999/xlink" version="1.1" id="Capa_1" x="0px" y="0px" viewBox="0 0 546.604 546.604" style="enable-background:new 0 0 546.604 546.604;" xml:space="preserve" width="512px" height="512px">
<g>
	<path d="M529.505,4.274c-9.41,0-17.074,7.652-17.074,17.086c0,105.779-32.558,159.416-96.8,159.416h-76.677   c-4.197-57.75-15.005-130.948-42.888-130.948c-2.917,0-7.748-1.901-12.865-3.898c-8.549-3.336-19.154-7.485-31.254-7.497   c-10.235,0-16.201,4.723-21.964,9.302c-3.061,2.415-6.229,4.938-10.342,7.042c-10.39,5.321-15.95,5.488-25.145,5.739   c-3.731,0.108-7.856,0.239-12.841,0.717c-7.712,0.741-11.837,4.567-13.941,7.64c-5.966,8.704-2.762,20.96-2.391,22.335   c0.574,1.997,2.236,3.491,4.245,3.958c2.056,0.466,4.209-0.263,5.608-1.817c0.155-0.18,4.663-4.926,15.149-3.719   c6.528,0.753,17.923,5.165,27.607,9.386c-8.274,2.056-18.963,4.723-29.856,7.568c-2.571,0.658-4.34,3.013-4.256,5.667   c0.084,2.654,1.997,4.902,4.603,5.416c17.528,3.479,29.365,4.005,37.998,4.412c8.644,0.383,12.853,0.682,16.38,2.75   c-16.105,22.765-24.212,42.685-28.229,55.933h-83.576c-64.266,0.024-96.824-53.637-96.824-159.392   c0-9.434-7.652-17.086-17.074-17.086C7.664,4.275,0,11.939,0,21.372v396.801c0,6.289,5.093,11.383,11.383,11.383   s11.395-5.093,11.395-11.383v-271.09c5.07,10.522,10.809,19.537,17.074,27.201v215.408c0,6.277,5.117,11.395,11.407,11.395   s11.371-5.117,11.371-11.395V195.411c5.524,3.79,11.251,6.947,17.062,9.506v161.999c0,6.277,5.117,11.383,11.407,11.383   s11.371-5.105,11.371-11.383V212.139c5.715,1.184,11.43,1.949,17.11,2.379v129.621c0,6.289,5.093,11.395,11.383,11.395   c6.289,0,11.371-5.105,11.371-11.395v-129.19h17.098v106.413c0,6.289,5.093,11.395,11.383,11.395s11.37-5.105,11.37-11.395V214.949   h24.941c-1.387,10.785-2.152,22.191-2.152,34.22c0,29.485,4.113,56.566,11.203,79.044c-0.406,0.347-0.825,0.61-1.208,0.98   l-67.184,67.196c-6.755,6.731-8.346,16.691-4.854,24.965l-43.916,43.94L79.439,426.89c-2.128-4.209-7.245-5.847-11.478-3.731   c-4.209,2.128-5.883,7.282-3.742,11.478l19.561,38.38l-42.553,6.72c-4.651,0.741-7.832,5.117-7.114,9.768   c0.67,4.221,4.304,7.21,8.429,7.21c0.442,0,0.873-0.024,1.351-0.108l42.553-6.72l-6.768,42.565   c-0.729,4.639,2.463,9.027,7.126,9.757c0.466,0.084,0.909,0.12,1.351,0.12c4.149,0,7.772-3.001,8.429-7.222l6.743-42.565   l38.38,19.585c1.244,0.634,2.583,0.921,3.874,0.921c3.109,0,6.11-1.698,7.628-4.663c2.14-4.209,0.478-9.338-3.731-11.478   l-38.38-19.585l43.904-43.904c2.846,1.196,5.847,1.818,8.872,1.818c5.823,0,11.67-2.248,16.117-6.684l57.583-57.594   c3.3,4.149,6.767,7.736,10.414,10.713l-31.206,49.392c-2.415,3.802-2.344,8.656,0.143,12.399c2.14,3.204,5.703,5.081,9.469,5.081   c0.645,0,1.279-0.06,1.913-0.155c0.143-0.024,10.008-1.686,22.12-2.917l11.765,51.162c1.208,5.189,5.799,8.836,11.107,8.836   c5.297,0,9.9-3.659,11.119-8.836l11.753-51.162c12.076,1.244,21.892,2.894,22.036,2.917c0.634,0.096,1.255,0.155,1.913,0.155   c3.754,0,7.329-1.877,9.47-5.081c2.475-3.731,2.547-8.573,0.179-12.351l-31.147-49.44c3.647-2.941,7.114-6.564,10.414-10.713   l57.559,57.571c4.448,4.46,10.283,6.696,16.117,6.696c3.037,0,6.026-0.634,8.872-1.805l43.928,43.904l-38.392,19.585   c-4.209,2.14-5.847,7.27-3.73,11.478c1.518,2.965,4.52,4.663,7.628,4.663c1.291,0,2.642-0.287,3.874-0.921l38.38-19.585   l6.732,42.565c0.67,4.221,4.292,7.222,8.429,7.222c0.442,0,0.885-0.036,1.327-0.108c4.675-0.741,7.844-5.105,7.126-9.757   l-6.755-42.565l42.565,6.72c0.466,0.072,0.909,0.12,1.339,0.12c4.125,0,7.76-3.013,8.429-7.222   c0.741-4.651-2.463-9.027-7.114-9.757l-42.553-6.731l19.549-38.38c2.164-4.209,0.466-9.35-3.73-11.478   c-4.233-2.14-9.338-0.478-11.478,3.731l-19.573,38.392l-43.94-43.928c3.503-8.286,1.913-18.21-4.842-24.977l-67.172-67.184   c-0.371-0.359-0.789-0.634-1.22-0.98c7.102-22.478,11.215-49.572,11.215-79.044c0-2.021-0.024-15.352-0.765-34.22h23.578v106.425   c0,6.277,5.082,11.395,11.359,11.395c6.301,0,11.395-5.117,11.395-11.395V214.961h17.098v129.202   c0,6.289,5.082,11.395,11.371,11.395c6.277,0,11.371-5.105,11.371-11.395V214.519c5.691-0.442,11.395-1.208,17.122-2.379v154.777   c0,6.277,5.082,11.383,11.371,11.383c6.277,0,11.395-5.105,11.395-11.383V204.93c5.811-2.559,11.55-5.727,17.074-9.506v194.281   c0,6.289,5.082,11.395,11.371,11.395c6.277,0,11.395-5.105,11.395-11.395V174.297c6.253-7.676,12.004-16.679,17.086-27.201v271.066   c0,6.289,5.105,11.383,11.383,11.383c6.301,0,11.395-5.093,11.395-11.383V21.373C546.591,11.938,538.939,4.274,529.505,4.274z" fill="#FFFFFF"/>
</g>
<g>
</g>
<g>
</g>
<g>
</g>
<g>
</g>
<g>
</g>
<g>
</g>
<g>
</g>
<g>
</g>
<g>
</g>
<g>
</g>
<g>
</g>
<g>
</g>
<g>
</g>
<g>
</g>
<g>
</g>
</svg>
