<?xml version="1.0" encoding="iso-8859-1"?>
<!-- Generator: Adobe Illustrator 18.1.1, SVG Export Plug-In . SVG Version: 6.00 Build 0)  -->
<svg xmlns="http://www.w3.org/2000/svg" xmlns:xlink="http://www.w3.org/1999/xlink" version="1.1" id="Capa_1" x="0px" y="0px" viewBox="0 0 19.938 19.938" style="enable-background:new 0 0 19.938 19.938;" xml:space="preserve" width="512px" height="512px">
<g>
	<path d="M13.234,4.975V3.637h0.053V2.453h-0.841v0.805h-0.608V2.453h-0.839v0.805h-0.61V2.453h-0.231V0   H9.931v2.453H9.549v0.805H8.943V2.453H8.102v0.805H7.494V2.453H6.656v1.184h0.049v1.338H3.893v1.631h0.32v13.332h11.514V6.605   h0.318v-1.63H13.234z M13.53,5.885h0.661v0.664H13.53V5.885z M13.396,9.68v0.98h-0.82V9.68H13.396z M12.417,5.885h0.661v0.664   h-0.661V5.885z M11.306,5.885h0.663v0.664h-0.663V5.885z M10.194,5.885h0.665v0.664h-0.665V5.885z M10.032,9.76v0.797H9.153V9.76   H10.032z M9.083,5.885h0.663v0.664H9.083V5.885z M7.97,5.885h0.665v0.664H7.97V5.885z M7.669,7.477h0.717v0.957H7.669V7.477z    M6.862,5.885h0.663v0.664H6.862V5.885z M5.751,5.885h0.663v0.664H5.751V5.885z M4.638,5.885h0.664v0.664H4.638V5.885z    M6.933,15.756H6.054v-1.398h0.879V15.756z M15.051,12.598H4.652v-0.293h10.399V12.598z M15.301,6.549h-0.663V5.885h0.663V6.549z" fill="#FFFFFF"/>
</g>
<g>
</g>
<g>
</g>
<g>
</g>
<g>
</g>
<g>
</g>
<g>
</g>
<g>
</g>
<g>
</g>
<g>
</g>
<g>
</g>
<g>
</g>
<g>
</g>
<g>
</g>
<g>
</g>
<g>
</g>
</svg>
