<?xml version="1.0" encoding="iso-8859-1"?>
<!-- Generator: Adobe Illustrator 16.0.0, SVG Export Plug-In . SVG Version: 6.00 Build 0)  -->
<!DOCTYPE svg PUBLIC "-//W3C//DTD SVG 1.1//EN" "http://www.w3.org/Graphics/SVG/1.1/DTD/svg11.dtd">
<svg xmlns="http://www.w3.org/2000/svg" xmlns:xlink="http://www.w3.org/1999/xlink" version="1.1" id="Capa_1" x="0px" y="0px" width="512px" height="512px" viewBox="0 0 31.89 31.89" style="enable-background:new 0 0 31.89 31.89;" xml:space="preserve">
<g>
	<g>
		<path d="M7.247,17.634v4.5c0,0,3.816,4.219,9.185,4.219c6.753,0,9.184-4.219,9.184-4.219v-4.882l-7.929,4.634    c-0.566,0.331-1.265,0.354-1.852,0.059L7.247,17.634z" fill="#FFFFFF"/>
		<path d="M16.63,12.277c-0.991,0-1.978-0.207-2.511-0.637l-9.533,3.302l11.313,5.663c0.585,0.293,1.281,0.271,1.844-0.06    l13.183-7.685c0.615-0.358,0.984-1.025,0.963-1.737s-0.435-1.354-1.07-1.672L17.166,2.619c-0.585-0.293-1.279-0.271-1.844,0.059    L2.139,10.362c-0.615,0.358-0.984,1.025-0.962,1.737c0.023,0.711,0.434,1.353,1.071,1.672l-0.029,6.977    c-0.682,0.239-1.17,0.892-1.17,1.653c0,0.565,0.266,1.067,0.682,1.391c-0.132,0.963-0.581,1.656-1.113,2.152    c-0.426,0.396-0.651,0.963-0.614,1.545c0.037,0.58,0.333,1.115,0.807,1.453l0.242,0.174c0.449,0.32,1.013,0.436,1.552,0.312    s1-0.465,1.269-0.945c0.928-1.658,0.478-3.811,0.171-4.844c0.317-0.316,0.514-0.755,0.514-1.238c0-0.758-0.482-1.405-1.157-1.649    L3.43,14.09l10.349-3.584c0.09-0.439,0.533-0.843,0.533-0.843c-0.034,0.119,0.033,1.564,2.222,1.564    c1.258,0,2.275-0.401,2.275-1.221c0-0.15-0.035-0.313-0.1-0.481c0.354,0.436,0.565,0.928,0.565,1.331    C19.276,11.81,18.091,12.277,16.63,12.277z" fill="#FFFFFF"/>
	</g>
</g>
<g>
</g>
<g>
</g>
<g>
</g>
<g>
</g>
<g>
</g>
<g>
</g>
<g>
</g>
<g>
</g>
<g>
</g>
<g>
</g>
<g>
</g>
<g>
</g>
<g>
</g>
<g>
</g>
<g>
</g>
</svg>
